<svg id="visual" viewBox="0 0 900 600" width="900" height="600" xmlns="http://www.w3.org/2000/svg" xmlns:xlink="http://www.w3.org/1999/xlink" version="1.1"><path d="M0 79L7.8 79C15.7 79 31.3 79 47.2 93C63 107 79 135 94.8 140C110.7 145 126.3 127 142 115C157.7 103 173.3 97 189.2 97C205 97 221 103 236.8 107C252.7 111 268.3 113 284.2 118C300 123 316 131 331.8 137C347.7 143 363.3 147 379 139C394.7 131 410.3 111 426.2 103C442 95 458 99 473.8 109C489.7 119 505.3 135 521 137C536.7 139 552.3 127 568.2 121C584 115 600 115 615.8 120C631.7 125 647.3 135 663.2 134C679 133 695 121 710.8 108C726.7 95 742.3 81 758 75C773.7 69 789.3 71 805.2 69C821 67 837 61 852.8 77C868.7 93 884.3 131 892.2 150L900 169L900 0L892.2 0C884.3 0 868.7 0 852.8 0C837 0 821 0 805.2 0C789.3 0 773.7 0 758 0C742.3 0 726.7 0 710.8 0C695 0 679 0 663.2 0C647.3 0 631.7 0 615.8 0C600 0 584 0 568.2 0C552.3 0 536.7 0 521 0C505.3 0 489.7 0 473.8 0C458 0 442 0 426.2 0C410.3 0 394.7 0 379 0C363.3 0 347.7 0 331.8 0C316 0 300 0 284.2 0C268.3 0 252.7 0 236.8 0C221 0 205 0 189.2 0C173.3 0 157.7 0 142 0C126.3 0 110.7 0 94.8 0C79 0 63 0 47.2 0C31.3 0 15.7 0 7.8 0L0 0Z" fill="#eb7570"></path><path d="M0 325L7.8 319C15.7 313 31.3 301 47.2 302C63 303 79 317 94.8 329C110.7 341 126.3 351 142 330C157.7 309 173.3 257 189.2 231C205 205 221 205 236.8 207C252.7 209 268.3 213 284.2 224C300 235 316 253 331.8 254C347.7 255 363.3 239 379 248C394.7 257 410.3 291 426.2 290C442 289 458 253 473.8 256C489.7 259 505.3 301 521 307C536.7 313 552.3 283 568.2 275C584 267 600 281 615.8 288C631.7 295 647.3 295 663.2 282C679 269 695 243 710.8 228C726.7 213 742.3 209 758 205C773.7 201 789.3 197 805.2 208C821 219 837 245 852.8 266C868.7 287 884.3 303 892.2 311L900 319L900 167L892.2 148C884.3 129 868.7 91 852.8 75C837 59 821 65 805.2 67C789.3 69 773.7 67 758 73C742.3 79 726.7 93 710.8 106C695 119 679 131 663.2 132C647.3 133 631.7 123 615.8 118C600 113 584 113 568.2 119C552.3 125 536.7 137 521 135C505.3 133 489.7 117 473.8 107C458 97 442 93 426.2 101C410.3 109 394.7 129 379 137C363.3 145 347.7 141 331.8 135C316 129 300 121 284.2 116C268.3 111 252.7 109 236.8 105C221 101 205 95 189.2 95C173.3 95 157.7 101 142 113C126.3 125 110.7 143 94.8 138C79 133 63 105 47.2 91C31.3 77 15.7 77 7.8 77L0 77Z" fill="#e05550"></path><path d="M0 373L7.8 372C15.7 371 31.3 369 47.2 374C63 379 79 391 94.8 400C110.7 409 126.3 415 142 399C157.7 383 173.3 345 189.2 324C205 303 221 299 236.8 292C252.7 285 268.3 275 284.2 277C300 279 316 293 331.8 296C347.7 299 363.3 291 379 311C394.7 331 410.3 379 426.2 377C442 375 458 323 473.8 320C489.7 317 505.3 363 521 376C536.7 389 552.3 369 568.2 360C584 351 600 353 615.8 357C631.7 361 647.3 367 663.2 353C679 339 695 305 710.8 283C726.7 261 742.3 251 758 254C773.7 257 789.3 273 805.2 293C821 313 837 337 852.8 349C868.7 361 884.3 361 892.2 361L900 361L900 317L892.2 309C884.3 301 868.7 285 852.8 264C837 243 821 217 805.2 206C789.3 195 773.7 199 758 203C742.3 207 726.7 211 710.8 226C695 241 679 267 663.2 280C647.3 293 631.7 293 615.8 286C600 279 584 265 568.2 273C552.3 281 536.7 311 521 305C505.3 299 489.7 257 473.8 254C458 251 442 287 426.2 288C410.3 289 394.7 255 379 246C363.3 237 347.7 253 331.8 252C316 251 300 233 284.2 222C268.3 211 252.7 207 236.8 205C221 203 205 203 189.2 229C173.3 255 157.7 307 142 328C126.3 349 110.7 339 94.8 327C79 315 63 301 47.2 300C31.3 299 15.7 311 7.8 317L0 323Z" fill="#d32f2f"></path><path d="M0 499L7.8 502C15.7 505 31.3 511 47.2 517C63 523 79 529 94.8 536C110.7 543 126.3 551 142 547C157.7 543 173.3 527 189.2 522C205 517 221 523 236.8 526C252.7 529 268.3 529 284.2 519C300 509 316 489 331.8 486C347.7 483 363.3 497 379 510C394.7 523 410.3 535 426.2 540C442 545 458 543 473.8 535C489.7 527 505.3 513 521 515C536.7 517 552.3 535 568.2 539C584 543 600 533 615.8 530C631.7 527 647.3 531 663.2 530C679 529 695 523 710.8 512C726.7 501 742.3 485 758 483C773.7 481 789.3 493 805.2 501C821 509 837 513 852.8 514C868.7 515 884.3 513 892.2 512L900 511L900 359L892.2 359C884.3 359 868.7 359 852.8 347C837 335 821 311 805.2 291C789.3 271 773.7 255 758 252C742.3 249 726.7 259 710.8 281C695 303 679 337 663.2 351C647.3 365 631.7 359 615.8 355C600 351 584 349 568.2 358C552.3 367 536.7 387 521 374C505.3 361 489.7 315 473.8 318C458 321 442 373 426.2 375C410.3 377 394.7 329 379 309C363.3 289 347.7 297 331.8 294C316 291 300 277 284.2 275C268.3 273 252.7 283 236.8 290C221 297 205 301 189.2 322C173.3 343 157.7 381 142 397C126.3 413 110.7 407 94.8 398C79 389 63 377 47.2 372C31.3 367 15.7 369 7.8 370L0 371Z" fill="#b7282b"></path><path d="M0 601L7.8 601C15.7 601 31.3 601 47.2 601C63 601 79 601 94.8 601C110.7 601 126.3 601 142 601C157.7 601 173.3 601 189.2 601C205 601 221 601 236.8 601C252.7 601 268.3 601 284.2 601C300 601 316 601 331.8 601C347.7 601 363.3 601 379 601C394.7 601 410.3 601 426.2 601C442 601 458 601 473.8 601C489.7 601 505.3 601 521 601C536.7 601 552.3 601 568.2 601C584 601 600 601 615.8 601C631.7 601 647.3 601 663.2 601C679 601 695 601 710.8 601C726.7 601 742.3 601 758 601C773.7 601 789.3 601 805.2 601C821 601 837 601 852.8 601C868.7 601 884.3 601 892.2 601L900 601L900 509L892.2 510C884.3 511 868.7 513 852.8 512C837 511 821 507 805.2 499C789.3 491 773.7 479 758 481C742.3 483 726.7 499 710.8 510C695 521 679 527 663.2 528C647.3 529 631.7 525 615.8 528C600 531 584 541 568.2 537C552.3 533 536.7 515 521 513C505.3 511 489.7 525 473.8 533C458 541 442 543 426.2 538C410.3 533 394.7 521 379 508C363.3 495 347.7 481 331.8 484C316 487 300 507 284.2 517C268.3 527 252.7 527 236.8 524C221 521 205 515 189.2 520C173.3 525 157.7 541 142 545C126.3 549 110.7 541 94.8 534C79 527 63 521 47.2 515C31.3 509 15.7 503 7.8 500L0 497Z" fill="#9b2126"></path></svg>